<mxfile modified="2023-06-11T18:19:13.349Z" host="app.diagrams.net" agent="Mozilla/5.0 (Windows NT 10.0; Win64; x64) AppleWebKit/537.36 (KHTML, like Gecko) Chrome/114.0.0.0 Safari/537.36" etag="be5147Y2voz_bnZwx3cz" version="21.3.8" type="github">
  <diagram id="Ht1M8jgEwFfnCIfOTk4-" name="Page-1">
    <mxGraphModel dx="1050" dy="1376" grid="1" gridSize="10" guides="1" tooltips="1" connect="1" arrows="1" fold="1" page="1" pageScale="1" pageWidth="1169" pageHeight="827" math="0" shadow="0">
      <root>
        <mxCell id="0" />
        <mxCell id="1" parent="0" />
        <mxCell id="t_cVaDMRmxYGfNz9zrif-7" value="&lt;h2&gt;&lt;br&gt;&lt;/h2&gt;" style="rounded=0;whiteSpace=wrap;html=1;fillColor=#9FBBD6;fontColor=#ffffff;strokeColor=#314354;align=center;" vertex="1" parent="1">
          <mxGeometry x="340" y="150" width="520" height="380" as="geometry" />
        </mxCell>
        <mxCell id="8VQppH2-594-cerbBL5P-25" value="" style="whiteSpace=wrap;html=1;aspect=fixed;fillColor=#dae8fc;strokeColor=#6c8ebf;" parent="1" vertex="1">
          <mxGeometry x="470" y="160" width="350" height="350" as="geometry" />
        </mxCell>
        <mxCell id="8VQppH2-594-cerbBL5P-23" style="edgeStyle=orthogonalEdgeStyle;rounded=0;orthogonalLoop=1;jettySize=auto;html=1;startArrow=open;startFill=0;endArrow=open;endFill=0;strokeWidth=2;strokeColor=#808080;exitX=0.5;exitY=0;exitDx=0;exitDy=0;entryX=0.5;entryY=1;entryDx=0;entryDy=0;" parent="1" source="8VQppH2-594-cerbBL5P-20" target="8VQppH2-594-cerbBL5P-9" edge="1">
          <mxGeometry relative="1" as="geometry">
            <Array as="points" />
            <mxPoint x="605" y="229" as="sourcePoint" />
            <mxPoint x="764" y="290" as="targetPoint" />
          </mxGeometry>
        </mxCell>
        <mxCell id="8VQppH2-594-cerbBL5P-19" value="" style="html=1;verticalLabelPosition=bottom;align=center;labelBackgroundColor=#ffffff;verticalAlign=top;strokeWidth=2;strokeColor=#0080F0;shadow=0;dashed=0;shape=mxgraph.ios7.icons.cloud;" parent="1" vertex="1">
          <mxGeometry x="335" y="-20" width="150" height="136" as="geometry" />
        </mxCell>
        <mxCell id="UEzPUAAOIrF-is8g5C7q-130" style="edgeStyle=orthogonalEdgeStyle;rounded=0;orthogonalLoop=1;jettySize=auto;html=1;startArrow=none;startFill=0;endArrow=open;endFill=0;strokeWidth=2;strokeColor=#808080;entryX=0.5;entryY=0;entryDx=0;entryDy=0;entryPerimeter=0;" parent="1" source="UEzPUAAOIrF-is8g5C7q-117" target="8VQppH2-594-cerbBL5P-4" edge="1">
          <mxGeometry relative="1" as="geometry">
            <Array as="points">
              <mxPoint x="400" y="330" />
              <mxPoint x="400" y="330" />
            </Array>
            <mxPoint x="300" y="190" as="sourcePoint" />
            <mxPoint x="320" y="410" as="targetPoint" />
          </mxGeometry>
        </mxCell>
        <mxCell id="UEzPUAAOIrF-is8g5C7q-132" style="edgeStyle=orthogonalEdgeStyle;rounded=0;orthogonalLoop=1;jettySize=auto;html=1;startArrow=open;startFill=0;endArrow=open;endFill=0;strokeWidth=2;strokeColor=#808080;exitX=0.5;exitY=1;exitDx=0;exitDy=0;exitPerimeter=0;" parent="1" source="8VQppH2-594-cerbBL5P-6" target="UEzPUAAOIrF-is8g5C7q-117" edge="1">
          <mxGeometry relative="1" as="geometry">
            <Array as="points">
              <mxPoint x="410" y="160" />
              <mxPoint x="399" y="160" />
            </Array>
            <mxPoint x="360" y="210" as="sourcePoint" />
            <mxPoint x="540" y="210" as="targetPoint" />
          </mxGeometry>
        </mxCell>
        <mxCell id="UEzPUAAOIrF-is8g5C7q-109" value="User Machine" style="outlineConnect=0;gradientColor=none;fontColor=#545B64;strokeColor=none;fillColor=#879196;dashed=0;verticalLabelPosition=bottom;verticalAlign=top;align=center;html=1;fontSize=12;fontStyle=0;aspect=fixed;shape=mxgraph.aws4.illustration_desktop;pointerEvents=1;labelBackgroundColor=#ffffff;" parent="1" vertex="1">
          <mxGeometry x="150" y="368" width="100" height="91" as="geometry" />
        </mxCell>
        <mxCell id="UEzPUAAOIrF-is8g5C7q-117" value="ETL Tools&lt;br&gt;" style="outlineConnect=0;fontColor=#232F3E;gradientColor=#945DF2;gradientDirection=north;fillColor=#5A30B5;strokeColor=#ffffff;dashed=0;verticalLabelPosition=bottom;verticalAlign=top;align=center;html=1;fontSize=12;fontStyle=0;aspect=fixed;shape=mxgraph.aws4.resourceIcon;resIcon=mxgraph.aws4.glue;labelBackgroundColor=#ffffff;movable=1;resizable=1;rotatable=1;deletable=1;editable=1;locked=0;connectable=1;fontFamily=Helvetica;" parent="1" vertex="1">
          <mxGeometry x="360.0000000000002" y="180" width="78" height="78" as="geometry" />
        </mxCell>
        <mxCell id="t_cVaDMRmxYGfNz9zrif-3" value="" style="edgeStyle=orthogonalEdgeStyle;rounded=0;orthogonalLoop=1;jettySize=auto;html=1;strokeColor=#808080;strokeWidth=2;endArrow=open;endFill=0;startArrow=open;startFill=0;" edge="1" parent="1" source="8VQppH2-594-cerbBL5P-1" target="UEzPUAAOIrF-is8g5C7q-109">
          <mxGeometry relative="1" as="geometry" />
        </mxCell>
        <mxCell id="t_cVaDMRmxYGfNz9zrif-8" value="" style="edgeStyle=orthogonalEdgeStyle;rounded=0;orthogonalLoop=1;jettySize=auto;html=1;entryX=-0.005;entryY=0.225;entryDx=0;entryDy=0;entryPerimeter=0;strokeWidth=2;strokeColor=#808080;startArrow=open;startFill=0;endArrow=open;endFill=0;" edge="1" parent="1" source="8VQppH2-594-cerbBL5P-1" target="t_cVaDMRmxYGfNz9zrif-7">
          <mxGeometry relative="1" as="geometry" />
        </mxCell>
        <mxCell id="8VQppH2-594-cerbBL5P-1" value="Servus VM" style="outlineConnect=0;gradientColor=none;fontColor=#545B64;strokeColor=none;fillColor=#879196;dashed=0;verticalLabelPosition=top;verticalAlign=bottom;align=center;html=1;fontSize=12;fontStyle=0;aspect=fixed;shape=mxgraph.aws4.illustration_desktop;pointerEvents=1;labelBackgroundColor=#ffffff;labelPosition=center;" parent="1" vertex="1">
          <mxGeometry x="150" y="181.75" width="100" height="91" as="geometry" />
        </mxCell>
        <mxCell id="8VQppH2-594-cerbBL5P-3" value="" style="sketch=0;pointerEvents=1;shadow=0;dashed=0;html=1;strokeColor=none;fillColor=#505050;labelPosition=center;verticalLabelPosition=bottom;verticalAlign=top;outlineConnect=0;align=center;shape=mxgraph.office.concepts.remote_access;" parent="1" vertex="1">
          <mxGeometry x="170.5" y="198.5" width="59" height="41" as="geometry" />
        </mxCell>
        <mxCell id="8VQppH2-594-cerbBL5P-6" value="Date Warehouse" style="sketch=0;points=[[0,0,0],[0.25,0,0],[0.5,0,0],[0.75,0,0],[1,0,0],[0,1,0],[0.25,1,0],[0.5,1,0],[0.75,1,0],[1,1,0],[0,0.25,0],[0,0.5,0],[0,0.75,0],[1,0.25,0],[1,0.5,0],[1,0.75,0]];outlineConnect=0;fontColor=#232F3E;gradientColor=#945DF2;gradientDirection=north;fillColor=#5A30B5;strokeColor=#ffffff;dashed=0;verticalLabelPosition=bottom;verticalAlign=top;align=center;html=1;fontSize=12;fontStyle=0;aspect=fixed;shape=mxgraph.aws4.resourceIcon;resIcon=mxgraph.aws4.redshift;" parent="1" vertex="1">
          <mxGeometry x="371" y="30" width="78" height="78" as="geometry" />
        </mxCell>
        <mxCell id="8VQppH2-594-cerbBL5P-9" value="ML Framework" style="editableCssRules=.*;html=1;shape=image;verticalLabelPosition=top;labelBackgroundColor=#ffffff;verticalAlign=bottom;aspect=fixed;imageAspect=0;image=data:image/svg+xml,PHN2ZyB4bWxucz0iaHR0cDovL3d3dy53My5vcmcvMjAwMC9zdmciIHhtbG5zOnY9Imh0dHBzOi8vdmVjdGEuaW8vbmFubyIgd2lkdGg9IjM0Ni4zMDMyMTgzOTM3OTEiIGhlaWdodD0iMzc5LjE5NjAwODk5NjY3Mjk2IiB2aWV3Qm94PSIwIDAgOTEuNjI1OTk5NDUwNjgzNiAxMDAuMzI5MDAyMzgwMzcxMSI+JiN4YTs8c3R5bGUgdHlwZT0idGV4dC9jc3MiPiYjeGE7CS5zdDB7ZmlsbDojNDI4NWY0O30mI3hhOzwvc3R5bGU+JiN4YTsJPHBhdGggY2xhc3M9InN0MCIgZD0iTTQ3LjcyOSAxMDAuMzI5VjBsNDMuODk3IDI1LjAyNXYyMS41NjJsLTI2LjgtMTUuMzQxdjExLjk1bDEzLjIxMyA2Ljg3NnYxOS4xNzdsLTEzLjIxMy03LjcxN3YyOS4wNDZ6TTAgMjUuMDI1TDQzLjQ2MyAwdjEwMC4zMjlsLTE2Ljc1Ni05Ljc1MnYtNTkuMzNMMCA0Ni41ODd6Ii8+JiN4YTs8L3N2Zz4=;horizontal=1;labelPosition=center;align=center;" parent="1" vertex="1">
          <mxGeometry x="730" y="181.75" width="67.05" height="74.5" as="geometry" />
        </mxCell>
        <mxCell id="8VQppH2-594-cerbBL5P-10" value="Data Libraries" style="shape=image;verticalLabelPosition=bottom;labelBackgroundColor=default;verticalAlign=top;aspect=fixed;imageAspect=0;image=data:image/png,iVBORw0KGgoAAAANSUhEUgAAAMIAAAEDCAMAAABQ/CumAAAAeFBMVEX///8TB1QAAEb/ygDnBIgPAFLNzNYTAFnQ0NgMAFcAAETb2eP39/oUBlfV1N7/xwDmAID/9tfLydcjG17/4Yz//vbCwM3ykcL61OfoBIwyKmgAADYAAE0AAErx8PTIxdT/+un/34T85/Lyir/lAHv50eX+9fkpH2Ma8J+4AAACEklEQVR4nO3dzVIaQRSAUYNCEIGoiYmJivnP+79hFrmLVHELZ6pnmG483xqaPruh5lb32ZkkSZIkSZIkvb52z7dZU2+rT4uH2X6rx6m31afF7M1+87dTb6tPCDWEUEMINYRQQ5MS1tu0nqtMSrhKn26e1v1WmZawyn58g4DQL4QIoSyECKEshAihLIQIoSyECKEshAihLIQIoSyECKEshAihLIQIoSyECOFA6cvM5a4nYb29yjoO4WmVvM58WPQkbF8e+RqPcDlPVp4t+xLS/W0QEBCqI8yTLpsizN8n/WmJ0CEEBAQEBAQEBIT2CF+/fci6a4hw8y7rvC3CeRYCAgICAgICAgICAgICwlCEtJYIdzdp/3+kdkKHToFQ+RjJMCEcCKF7CAdC6B7CgRC6Nylh9zGtJUJ6uNCsnsOFhhkvPAHC9x+fsloi/Pp5nXTREuH++iLpMwICAgICAgICAgICAgKC/87R7/u0lggdQkBAQEBAQEB4dYQON67UTqh9KuwkDlRBQED4R8gOF5o3Rdh8yepLGO0ez6MNPO+WQ9w3NilhvBAihLIQIoSyECKEshAihLIQIoSyECKEshAihLIQIoSyECKEshAihLIQIoSyEKJt+lL0SNeADUR4TG9cGWXHew10AkPP4aRBO9ohEuOFUEMINYRQQwg1dAKEDvd41t5t2u7lL0qSJEmSJEnSyfUXeomSFq0EzbkAAAAASUVORK5CYII=;" parent="1" vertex="1">
          <mxGeometry x="520" y="169" width="74.9" height="100" as="geometry" />
        </mxCell>
        <mxCell id="8VQppH2-594-cerbBL5P-13" style="edgeStyle=orthogonalEdgeStyle;rounded=0;orthogonalLoop=1;jettySize=auto;html=1;startArrow=none;startFill=0;endArrow=open;endFill=0;strokeWidth=2;strokeColor=#808080;" parent="1" source="UEzPUAAOIrF-is8g5C7q-117" target="8VQppH2-594-cerbBL5P-10" edge="1">
          <mxGeometry relative="1" as="geometry">
            <Array as="points" />
            <mxPoint x="420" y="219" as="sourcePoint" />
            <mxPoint x="350" y="229" as="targetPoint" />
          </mxGeometry>
        </mxCell>
        <mxCell id="8VQppH2-594-cerbBL5P-16" style="edgeStyle=orthogonalEdgeStyle;rounded=0;orthogonalLoop=1;jettySize=auto;html=1;startArrow=open;startFill=0;endArrow=open;endFill=0;strokeWidth=2;strokeColor=#808080;exitX=1;exitY=0.5;exitDx=0;exitDy=0;" parent="1" source="8VQppH2-594-cerbBL5P-10" target="8VQppH2-594-cerbBL5P-9" edge="1">
          <mxGeometry relative="1" as="geometry">
            <Array as="points">
              <mxPoint x="650" y="219" />
              <mxPoint x="650" y="219" />
            </Array>
            <mxPoint x="640" y="220" as="sourcePoint" />
            <mxPoint x="530" y="229" as="targetPoint" />
          </mxGeometry>
        </mxCell>
        <mxCell id="8VQppH2-594-cerbBL5P-4" value="Exploratory Data&lt;br&gt;Analysis" style="shape=image;html=1;verticalAlign=top;verticalLabelPosition=bottom;labelBackgroundColor=#ffffff;imageAspect=0;aspect=fixed;image=https://cdn1.iconfinder.com/data/icons/ionicons-fill-vol-2/512/logo-tableau-128.png;movable=1;resizable=1;rotatable=1;deletable=1;editable=1;locked=0;connectable=1;points=[[0,0,0,0,0],[0,0.25,0,0,0],[0,0.5,0,0,0],[0,0.75,0,0,0],[0,1,0,0,0],[0.25,0,0,0,0],[0.25,1,0,0,0],[0.5,0,0,0,0],[0.5,1,0,0,0],[0.75,0,0,0,0],[0.75,1,0,0,0],[1,0,0,0,0],[1,0.25,0,0,0],[1,0.5,0,0,0],[1,0.75,0,0,0],[1,1,0,0,0]];" parent="1" vertex="1">
          <mxGeometry x="349" y="351" width="100" height="100" as="geometry" />
        </mxCell>
        <mxCell id="8VQppH2-594-cerbBL5P-20" value="API Library" style="shape=image;verticalLabelPosition=bottom;labelBackgroundColor=default;verticalAlign=top;aspect=fixed;imageAspect=0;image=data:image/png,iVBORw0KGgoAAAANSUhEUgAAAOEAAADhCAMAAAAJbSJIAAAAh1BMVEX///8AAAD7+/v29vbw8PDv7+/c3Nzq6ur39/fAwMDJycnz8/PCwsK4uLiDg4Pj4+PPz8+Li4ttbW3W1tZ9fX13d3cQEBDd3d03Nzc8PDylpaVVVVWWlpatra1ERERnZ2dNTU0fHx+cnJwsLCwVFRUtLS0kJCRgYGBBQUFTU1OIiIiRkZEaGhoW0LxYAAAPeElEQVR4nO1da3uiOhAGrSAoooA3FO/VtvT//77DJOE+CbhHZXYf3w/ntGrZjJnMfSaa9sYbb7zxxhtvvPHGXwzXGiew+l2v42mY6gJ21yt5EoyEtnjpnv5dEn8FZVZCYtdreQocXd/wn1a67nS7ludgltDl+tOxZR10fdL1ap6BUC9g3/VqnoFBkcKfrlfzFEwKFI67XsxzsM4pHHW9ludgeMwo7Hopz8JoIQj87HolT4Ob7mGv65U8DanKWDmu2WPoekWPhqvXsA67XtRDEdUp/LeU4xQj8F+SrBZO4L8jd2IJgbrb9coeg9FORuA/soeSI8hw6npxj8BYQWDiGptdr+//46qkUNe9adcr/J/4wIi6rUq/f3rh9C/2OY51ChNbZmTvKy8e99FfKnfCOoUr9sZoXnvD73itfwaMTQ3+1rr6+qHLhf45EDblwcVR/Y2o47X+GW7IJjJKMD1idb3aP8EnQogej8oBqgzeoOv13g0ToyPB2Us15aFCo9H1ku8ExqQ5rpNxX1tVXjz8VUaAJ6fu4jmcJetq4/uv0RvOUUbeJlxmn0JUpr75C2jsO7L928VlNsS9jwPxXKNbtcpyDhTkzT6F/zuR+Y+/J8JpcYzxCkTG4w/Qhh/wUaV75VFlVltJYIYr2NqB+jMrmgb5dzsK9V3y2cpLwTZypq7J+LPnMqtgTnAjqxpOCi9KP/rpnb7g/xVHkbP7J7mN3LSlkGEVOO5QEzHHSqJ/mO0trXiHLD5ax3pm59sDGap5+UkFo+9GypyruX4ogvGw9FcgoC7lB5VCrTtCrseskbpDaGq9peWM7YIcCS7rVcm58Kt/RSSeY/02kOdBiVsoNtqTPwjJWFEIk/fU7sQ6Zpt2Yr8sdp6idgE157p3II0Ftq5084Q7odnR2F8O1DrghD7i6wU0KCE3wvbRsvnPczjMQz5MZl5Fu3ZcOIYSuDjMrPvU2VTYclxBDJwi41+fse7WMDACj/c9Y+TMU0bPtUPfyZ2VLu2bHs6fcesH9O24yJPlN6cx+Fn7jwcv+i4UmWkx8zOCA/72+HyVp+5NP/Qqcbl17UPDQccKMV/chEmVSWmpffixIgr7A2PsRDPvXNl2JmY2LyegEWJ5mXWVliXymkuuv7OsqBHNV6hpsDn5Pa3/TZhCRzO9W8DCLGmRiZCkTMMx18//QU/sbuKkRsuALoUudwj4vglCvsUHBnNd3ya6DnEgV0FUdh7OyDnsHHwHucARipnbqLvc1uprEcqbNRFyo0phmlDLVmzY06IGi44of4qsYgFzohQeWXG+XtJlyyhKHcETYrXaUQCKrqpIAoq1mpwyHgnO7JEx2zRwKFw03cS9+qUTVByj4F5j6BWABRtpHErYHmlW4rDHHP/FtzQrOtEXr1p3e/AtSVfPPL962iVHIH0QkB0IxUIKbN1ORsHR+1GW00j9jQDUS5CxASGoyKlDyp/ggh1HnuIr6Ax3xUnlniw7sJcVxfITJHIkwWIij7fkTyHYf6KSKynmoe0qndg8nkyw001Wl1BA80NyUUWx1l2aGL2DwjzWM3v+gu+GupwU0Cw98ma3eeNnX4+hgjaOW/NDQCRPxu0++3qoA96A5rj8khXxbYi2SaGtIyVkeQp5YVAEEUNQGi9Z8p3Aqi0rSFWFojCIGaRfNCnUvhopTPduwSIacmwopGEQ4PkUjMJr4WcMCYV3ZTpeBTSwj3LpVldLy436C+gODfRd8lVDClvxoBtJs01T2qb7yEojhgPbNrThSTUpY0O1qcaR0bfINeGYRzQmI02Rhzjck9N5JZAKdY5cMDLL5wY5QpUwPStz/F1CUhFVdPZY0O2kjT1VtEkn25+AxgwrUpPlmpId6smdXMjN1cLENIBWRC3KxUFDVr++U3nCLPtIrZ6NY4BRmMn9pZA301tZ+NRx0SnGExkuCIVZYK2nb0Q4vGfHC9U0F6jhJFXLlgPTiKKCIvoxknfXGfOpuDDUScaiAKgHtbZtUPc8Vd+qE3+ok+2EUgQVI+FdtXrOmarKV5qmN17128ot+qYZqQHIYt+Q/N2x5gP5+St4xReyKl/SjHAeMZt1sVNZY6M8WQHVKRfpB7vFEqUQdB8UVJq+Qn6csqoG7mm+YLV/BIxAli2EoHhBA5j6LSor9XU+etBtfWA7gGh52hYpZNwHbFrYQVYmVdxRMNWyAgWopSaq8hkhky/dLhjhXOXDC9CtnsoTVrhQMMrZvqWbCFXeNL18zoyboR4UixUZHR7bMyfTAjyAnBc/GUWKQ51mcoYBfHjD2JVC4McBf90a5Sl8IXUz2crYVogX1olAVSGymCJsRTmkMWLesW/nFKbmT3YWWeKf8TAnftfF6tvAFeqhbMB5LII4clIKzTwgkLpRTDixw5cc0b1OV11oR85h/RKFC0aRlu5hrC8zK/0srJxMuiYG7NTWKVYrCLCumQ8hLLOTmLwRx0BVQuFgx15IP5AKUEf87CZWNwgqov6T6Ab5qXjDXGYuD0ChJfhWxDx+s7+c8Toa45D8Z0czD8zB9qZXyZgmfOswDzFINWUkxG3B4J4waqdg65zo2t6CTU9apRZxo31UXvHBxPsuxWvyXwzKooZb37XQ4rwaMT5rS0cuTXS6dpuIV0S1FoxxtSRFaVvvCVs1PJF4rrUinqtKUvmQiGi5AgPfqnEtjTHN/Mfbfq1f1NrApHwQNRbWXmuV6SxM2fPe0HOLiPaV8qh6run8WmwR3hP9vc2NvRPSU845K1Z7ecFKyahuTIHad/e+vRJcyNQypsdpYVJEk4cLJgNdfcFlTfUcFgBRx6ZmtANlw60mZDgW87RqH05q0yk70Q0parIZJ4m68Hnyxgad2SBQDZ1q0QlDta2Q8ya8MwwTT9EEi6dJGeiEQxmyOj7hR8BM71mzOPWa97lLoBQWsvMjVV8JB8hiqjFFTYRdcD7lmDX2UZo62YoFgKwYM0z5bpRFYkZbyYk86xQ7LzJIx0DN+ukHFpGdeIhgoSeO0rZeuwB9qERLhwCKilreVCIqN3hnm61t6sE1pnPIhtzUs7yCQfUDvUSuDCtPYE50kzzqEGh1TQZvWR7EsOvVxUqPxeuIzN7B0DCQ7ViepODU+/B5lwrhixRa1LYXAZ5jydROrYYq8xICXsknA6uEL6WJBQh7GHDQjs3l3yUU/nyaBlgJi1PwIOrBjBQ/2AzCUnhD5Mwp32i2gCS3xBOONa0/rlXClYOkosOBsGEDxnOMN32ljlGlTaPCkVwek82Wajz+bWIl7lnxTLl0umah8pcJuxgQb1tjfW1pSL9YV/w7qSuGWLfAACfsJ/IajDqFqftb6NtHPSX3xnIBhJ19dgj7SIcp35WSoEVlZo+fZsIRG6isuCHjvbkeL88PlPnEgU5xVEYGECUWwqfcHyxnqH4lW/VFmk9ZcB/pVBAF4JU2lA1KI5i4ZCsXeH37HGlP5DxZq5y+YJlRcIaJNihowpGdIlFi7hfVq24vSL5iRlrvgyw8Yr1t/CgiVh1Sabsi7SmyPnukHUNcrVOnECFxQPoosoCGgcyPvDGtiFl19QCjpdMYtYsDztonWujO4m7IUA1E/3m1NjFKgE6EGI/1zwdaDxl1Vtca8KnOR+1KwUISrmQY9qk23FpHhQ0YQHS9YWDQlaxtaIW0hGGaHwI/dMsXvhmfNg9eEMD7nq461TZvTegEt3k+CIfE5XUl/EsDFuPTdgR+yyw0ZhgRmrJfBhy2WHV3ZxEbScbNUexw94AONl86l6CKK86Nc8q7yE6R5pb9pa3jhBNJJ/8WC8/olHcR5Mx3JYDIpb+JzTdNENdp5ExAVdxAMOOnMhgsnR9h4bd/1L1F/jmqSgPip+PKbIJ5uk8+etnXsepRiJNMNKzBvAy3WqoRM5e374dYQ3/igVR0h3iZ4ExsAFigi142DbuwVShxAmXBkmbtzjS7MMFAhXhE8xjCIkosmXcc0YyipjUkrU1UhmtxLG3uitCUN5DFmGnaED90UhTDU7lldCOZ0QB3OGw1EbSEIksa+MtkAE6QU7/U6R4SB3l9J8U8fx8YNJJdYilHKRecF7N8EpxfNxIk3ruLpQxxwTIiOCdkBGYonMWmW77KKF8X9JFrnDO90zgC0uAEtZmxnKPSC+XnKscjVx3GSAS96Cu6Fuqo+hRW7niR0409WNsBfjIbKuAyrAPk+q+CvX6v19h79r7D5p2ZVd3uhlYvtA1s4v4ou/Vqdcdx7MPtoIsnbzw7g0w+tryEFoDPGB6Lndy1bXhL3fAniyjmRDFRr7jHuwKZ0zQQNS2rNkGcYVZx9ux4CHeF55bbPA88hZyv0mDstfEGWjePmTy9LBCfSqSC4kvP483Vm13KKNhSL6iUH93nRambiQoxroMj3cjioX9Juu6+Qlt1i3cpOrLHv4yiNfwiU6j9LcIMStlQeda8nhgvngvl0O1Hwmx3jXCGlfcjFZijqlT+DstzGwpvvTKWFev34rcsS/pudjtI/Xap4z5MIwTFpMLipfEB/z4nA8CFRG9pZup+HwnZv4xOQTXfvDk5zqwUOXl13UP+zS/aRXBYwhtES/HLWYeZXWcob2RKFIWP2oBP3Fgj6zA5nFqpkMC0sV7VjZNd9tbiIdevze0nsjPFn3xl5423jSzDHXwAHno/aL6icNrejMuwi1M+uFliJ8btH+NtLds+YV/Z7wOTeR/Zgi6RiTdpSgGjbgpJ9H2qJ4ywVoStun0axSPnVxS89rBnSfKKGFhUvLxj+3QntWkmdmKfJ0EGvrOtXhotx2OLBp1czkSa33y5iwA7LTUeu3HbrZdRGFpT33Czo9WTDpIv46EUJjRmXLQeaB9tVeX1x0bLdXZBgDXn6JfVwZtP2gijx1NYPE+gqbH7WV+Mh1OY0JgyHBPjeO70dXjOuCObzR3WP7mobs2sT8Gz3OSlUG8x/wecez3JB2ETPtHM6UV8Iw/c4DRezqyH0/P75tyYm5fr7TSR8UNJVcozsJjYr3I+jJmwoS/z0DaiO53JP8N6++KElhvusn/8fj+rHY5eMJmzmeuHsJPG3N549kS9uLFSh8Q1ukyc9+1tfbD9V2zZU9/3p2PLCuNgfmjwC+v4DGnVrZh2OD+UBc7amyQO3SD/8vum608dy4niyU7N1ee9Yj5lpxj61jaoEKpfPjfez+wUOY4Thad4fkCnOaW0JZ7vlFzWsYaeOXXCyW3XWol8Mgfed+mTVsPAt6Pt5La+IsQujp+HII5sg25Hyl3oD0xzmcie8ThxBl3THJGsKnrjjTfeeOONN9544+H4D0pXwVwunEBsAAAAAElFTkSuQmCC;" parent="1" vertex="1">
          <mxGeometry x="718.53" y="368" width="90" height="90" as="geometry" />
        </mxCell>
        <mxCell id="8VQppH2-594-cerbBL5P-24" value="" style="image;sketch=0;aspect=fixed;html=1;points=[];align=center;fontSize=12;image=img/lib/mscae/Docker.svg;" parent="1" vertex="1">
          <mxGeometry x="621.75" y="310" width="50" height="41" as="geometry" />
        </mxCell>
      </root>
    </mxGraphModel>
  </diagram>
</mxfile>
